<svg width="24" height="24" viewBox="0 0 24 24" fill="none" xmlns="http://www.w3.org/2000/svg">
<path fill-rule="evenodd" clip-rule="evenodd" d="M2.39844 7.20078C2.39844 6.56426 2.65129 5.95381 3.10138 5.50372C3.55147 5.05364 4.16192 4.80078 4.79844 4.80078H9.59844L11.9984 7.20078H16.7984C17.435 7.20078 18.0454 7.45364 18.4955 7.90372C18.9456 8.35381 19.1984 8.96426 19.1984 9.60078V10.8008H9.59844C8.64366 10.8008 7.72798 11.1801 7.05285 11.8552C6.37772 12.5303 5.99844 13.446 5.99844 14.4008V16.2008C5.99844 16.6782 5.8088 17.136 5.47123 17.4736C5.13366 17.8111 4.67583 18.0008 4.19844 18.0008C3.72105 18.0008 3.26321 17.8111 2.92565 17.4736C2.58808 17.136 2.39844 16.6782 2.39844 16.2008V7.20078Z" fill="white"/>
<path d="M7.19844 14.4C7.19844 13.7635 7.45129 13.153 7.90138 12.7029C8.35147 12.2529 8.96192 12 9.59844 12H19.1984C19.835 12 20.4454 12.2529 20.8955 12.7029C21.3456 13.153 21.5984 13.7635 21.5984 14.4V16.8C21.5984 17.4365 21.3456 18.047 20.8955 18.4971C20.4454 18.9471 19.835 19.2 19.1984 19.2H2.39844H4.79844C5.43496 19.2 6.04541 18.9471 6.49549 18.4971C6.94558 18.047 7.19844 17.4365 7.19844 16.8V14.4Z" fill="white"/>
</svg>
