<svg width="30" height="30" viewBox="0 0 30 30" fill="none" xmlns="http://www.w3.org/2000/svg">
<path d="M11.4287 3.75H6.07125C4.78926 3.75 3.75 4.78926 3.75 6.07125V11.4287C3.75 12.7107 4.78926 13.75 6.07125 13.75H11.4287C12.7107 13.75 13.75 12.7107 13.75 11.4287V6.07125C13.75 4.78926 12.7107 3.75 11.4287 3.75Z" fill="white"/>
<path d="M23.9287 3.75H18.5713C17.2893 3.75 16.25 4.78926 16.25 6.07125V11.4287C16.25 12.7107 17.2893 13.75 18.5713 13.75H23.9287C25.2107 13.75 26.25 12.7107 26.25 11.4287V6.07125C26.25 4.78926 25.2107 3.75 23.9287 3.75Z" fill="white"/>
<path d="M11.4287 16.25H6.07125C4.78926 16.25 3.75 17.2893 3.75 18.5713V23.9287C3.75 25.2107 4.78926 26.25 6.07125 26.25H11.4287C12.7107 26.25 13.75 25.2107 13.75 23.9287V18.5713C13.75 17.2893 12.7107 16.25 11.4287 16.25Z" fill="white"/>
<path d="M23.9287 16.25H18.5713C17.2893 16.25 16.25 17.2893 16.25 18.5713V23.9287C16.25 25.2107 17.2893 26.25 18.5713 26.25H23.9287C25.2107 26.25 26.25 25.2107 26.25 23.9287V18.5713C26.25 17.2893 25.2107 16.25 23.9287 16.25Z" fill="white"/>
</svg>
