<svg width="16" height="16" viewBox="0 0 16 16" fill="none" xmlns="http://www.w3.org/2000/svg">
<path d="M8.00069 1.83203L8.00114 1.83203C8.8726 1.83209 9.72782 2.06775 10.4763 2.51407C11.2248 2.96039 11.8387 3.60078 12.253 4.36744C12.6673 5.1341 12.8666 5.99851 12.8299 6.86919C12.7931 7.73986 12.5217 8.58441 12.0442 9.31343L12.0255 9.34202L12.0108 9.3729C12.0066 9.38173 12.0014 9.39001 11.9952 9.39756L11.9944 9.39848L11.9097 9.50181L11.901 9.51247L11.8929 9.5236C11.7853 9.67073 11.6692 9.8114 11.545 9.94486L11.5345 9.95621L11.5247 9.96818L8.13025 14.1045C8.13023 14.1046 8.1302 14.1046 8.13017 14.1046C8.11454 14.1236 8.0949 14.1389 8.07267 14.1494C8.05038 14.1599 8.02605 14.1654 8.00142 14.1654L8.00019 14.1654C7.97562 14.1654 7.95135 14.16 7.92911 14.1496C7.90704 14.1393 7.88752 14.1242 7.87191 14.1055C7.87178 14.1053 7.87166 14.1052 7.87153 14.105L4.37593 9.857L4.37603 9.85692L4.36877 9.84849C4.30828 9.77823 4.23723 9.69174 4.16821 9.60239L4.16358 9.5964L4.15878 9.59055L4.07878 9.49322L4.07812 9.49242C4.07036 9.48301 4.06365 9.47278 4.05812 9.46192L4.04292 9.43205L4.02387 9.40448C3.52303 8.6796 3.2301 7.83149 3.17681 6.95203C3.12352 6.07257 3.31191 5.19529 3.72157 4.41525C4.13122 3.6352 4.74653 2.98213 5.50081 2.52678C6.2551 2.07143 7.11961 1.83117 8.00069 1.83203ZM9.3901 4.58669C8.97898 4.31199 8.49563 4.16537 8.00117 4.16537C7.33813 4.16537 6.70225 4.42876 6.23341 4.8976C5.76457 5.36644 5.50117 6.00233 5.50117 6.66537C5.50117 7.15982 5.6478 7.64317 5.9225 8.05429C6.1972 8.46542 6.58765 8.78585 7.04447 8.97507C7.50128 9.16428 8.00395 9.21379 8.4889 9.11733C8.97385 9.02087 9.41931 8.78276 9.76894 8.43313C10.1186 8.0835 10.3567 7.63805 10.4531 7.15309C10.5496 6.66814 10.5001 6.16547 10.3109 5.70866C10.1217 5.25184 9.80122 4.8614 9.3901 4.58669Z" fill="#6B7280" stroke="#6B7280"/>
</svg>
