<svg width="30" height="30" viewBox="0 0 30 30" fill="none" xmlns="http://www.w3.org/2000/svg">
<path d="M20.5577 8.42105C20.5577 11.4043 18.0802 13.8421 15 13.8421C11.9198 13.8421 9.44231 11.4043 9.44231 8.42105C9.44231 5.43778 11.9198 3 15 3C18.0802 3 20.5577 5.43778 20.5577 8.42105ZM8.57326 17.9447C9.7406 16.8037 11.3257 16.1598 12.9814 16.1579H17.0186C18.6743 16.1598 20.2594 16.8037 21.4267 17.9447C22.5937 19.0853 23.248 20.6294 23.25 22.2375V26.1842C23.25 26.3968 23.1637 26.6031 23.0062 26.7571C22.8484 26.9113 22.6319 27 22.4038 27H7.59615C7.3681 27 7.15163 26.9113 6.99378 26.7571C6.83631 26.6031 6.75 26.3968 6.75 26.1842V22.2371C6.75205 20.6292 7.40637 19.0853 8.57326 17.9447Z" fill="white" stroke="white"/>
</svg>
