<svg width="30" height="30" viewBox="0 0 30 30" fill="none" xmlns="http://www.w3.org/2000/svg">
<path d="M24.9038 14.5225C24.84 14.3687 24.7487 14.2312 24.6325 14.115L19.6337 9.11625C19.145 8.6275 18.355 8.6275 17.8663 9.11625C17.3775 9.605 17.3775 10.395 17.8663 10.8837L20.7325 13.75H10C9.30875 13.75 8.75 14.31 8.75 15C8.75 15.69 9.30875 16.25 10 16.25H20.7325L17.8663 19.1163C17.3775 19.605 17.3775 20.395 17.8663 20.8838C18.11 21.1275 18.43 21.25 18.75 21.25C19.07 21.25 19.39 21.1275 19.6337 20.8838L24.6325 15.885C24.7487 15.77 24.84 15.6313 24.9038 15.4775C25.03 15.1725 25.03 14.8275 24.9038 14.5225Z" fill="white"/>
<path d="M12.5 22.5H8.75C8.06 22.5 7.5 21.9387 7.5 21.25V8.75C7.5 8.06125 8.06 7.5 8.75 7.5H12.5C13.1912 7.5 13.75 6.94 13.75 6.25C13.75 5.56 13.1912 5 12.5 5H8.75C6.6825 5 5 6.6825 5 8.75V21.25C5 23.3175 6.6825 25 8.75 25H12.5C13.1912 25 13.75 24.44 13.75 23.75C13.75 23.06 13.1912 22.5 12.5 22.5Z" fill="white"/>
</svg>
