<svg width="12" height="13" viewBox="0 0 12 13" fill="none" xmlns="http://www.w3.org/2000/svg">
<path d="M7.18988 6.50959L11.6007 2.09876C11.6803 2.02188 11.7438 1.92993 11.7875 1.82826C11.8311 1.72659 11.8541 1.61724 11.8551 1.50659C11.856 1.39594 11.835 1.28621 11.7931 1.18379C11.7512 1.08138 11.6893 0.988337 11.611 0.910093C11.5328 0.831849 11.4398 0.769972 11.3373 0.728071C11.2349 0.68617 11.1252 0.665086 11.0145 0.666047C10.9039 0.667009 10.7945 0.689997 10.6929 0.733671C10.5912 0.777346 10.4992 0.840831 10.4224 0.920423L6.01154 5.33126L1.60071 0.920423C1.44354 0.768624 1.23304 0.684629 1.01454 0.686527C0.796044 0.688426 0.587034 0.776067 0.432527 0.930574C0.27802 1.08508 0.190379 1.29409 0.18848 1.51259C0.186582 1.73109 0.270577 1.94159 0.422376 2.09876L4.83321 6.50959L0.422376 10.9204C0.342784 10.9973 0.279299 11.0892 0.235624 11.1909C0.19195 11.2926 0.168962 11.4019 0.168 11.5126C0.167039 11.6232 0.188123 11.733 0.230024 11.8354C0.271925 11.9378 0.333802 12.0308 0.412046 12.1091C0.49029 12.1873 0.583334 12.2492 0.685747 12.2911C0.788161 12.333 0.897894 12.3541 1.00854 12.3531C1.11919 12.3522 1.22854 12.3292 1.33021 12.2855C1.43188 12.2418 1.52384 12.1783 1.60071 12.0988L6.01154 7.68792L10.4224 12.0988C10.5795 12.2506 10.79 12.3345 11.0085 12.3327C11.227 12.3308 11.4361 12.2431 11.5906 12.0886C11.7451 11.9341 11.8327 11.7251 11.8346 11.5066C11.8365 11.2881 11.7525 11.0776 11.6007 10.9204L7.18988 6.50959Z" fill="#9CA3AF"/>
</svg>
