<svg width="14" height="14" viewBox="0 0 14 14" fill="none" xmlns="http://www.w3.org/2000/svg">
<path d="M12.332 8.19723H10.632L9.2987 9.56475H12.332V12.2998H1.66536V9.56475H4.6987L3.36536 8.19723H1.66536C1.31174 8.19723 0.972604 8.34131 0.722555 8.59777C0.472507 8.85423 0.332031 9.20206 0.332031 9.56475V12.2998C0.332031 12.6625 0.472507 13.0103 0.722555 13.2668C0.972604 13.5232 1.31174 13.6673 1.66536 13.6673H12.332C12.6857 13.6673 13.0248 13.5232 13.2748 13.2668C13.5249 13.0103 13.6654 12.6625 13.6654 12.2998V9.56475C13.6654 9.20206 13.5249 8.85423 13.2748 8.59777C13.0248 8.34131 12.6857 8.19723 12.332 8.19723Z" fill="#111928"/>
<path d="M6.5267 9.02185C6.58863 9.08552 6.66219 9.13604 6.74319 9.17051C6.82418 9.20498 6.91101 9.22273 6.9987 9.22273C7.08639 9.22273 7.17322 9.20498 7.25421 9.17051C7.3352 9.13604 7.40877 9.08552 7.4707 9.02185L10.1374 6.28681C10.2588 6.15785 10.326 5.98513 10.3245 5.80585C10.323 5.62657 10.2528 5.45507 10.1292 5.3283C10.0056 5.20152 9.83843 5.12961 9.66363 5.12805C9.48883 5.1265 9.32043 5.19541 9.1947 5.31997L7.66536 6.88851V1.01775C7.66536 0.8364 7.59513 0.662483 7.4701 0.534253C7.34508 0.406023 7.17551 0.333984 6.9987 0.333984C6.82189 0.333984 6.65232 0.406023 6.52729 0.534253C6.40227 0.662483 6.33203 0.8364 6.33203 1.01775V6.88851L4.80336 5.32065C4.74187 5.25535 4.6683 5.20325 4.58697 5.16742C4.50563 5.13158 4.41815 5.11272 4.32963 5.11193C4.24111 5.11114 4.15333 5.12844 4.0714 5.16282C3.98946 5.1972 3.91503 5.24798 3.85243 5.31218C3.78984 5.37638 3.74034 5.45272 3.70682 5.53675C3.6733 5.62078 3.65643 5.71082 3.6572 5.80161C3.65797 5.8924 3.67636 5.98212 3.7113 6.06554C3.74624 6.14896 3.79702 6.22441 3.8607 6.28749L6.5267 9.02185Z" fill="#111928"/>
<path d="M10.332 11.616C10.7002 11.616 10.9987 11.3099 10.9987 10.9323C10.9987 10.5546 10.7002 10.2485 10.332 10.2485C9.96384 10.2485 9.66536 10.5546 9.66536 10.9323C9.66536 11.3099 9.96384 11.616 10.332 11.616Z" fill="#111928"/>
</svg>
