<svg width="16" height="16" viewBox="0 0 16 16" fill="none" xmlns="http://www.w3.org/2000/svg">
<path d="M13.3333 2H10.6667C10.298 2 10 2.29867 10 2.66667C10 3.03467 10.298 3.33333 10.6667 3.33333H11.886L9.52867 5.69067C9.268 5.95133 9.268 6.37267 9.52867 6.63333C9.65867 6.76333 9.82933 6.82867 10 6.82867C10.1707 6.82867 10.3413 6.76333 10.4713 6.63333L12.6667 4.438V5.33333C12.6667 5.70133 12.9647 6 13.3333 6C13.702 6 14 5.70133 14 5.33333V2.66667C14 2.29867 13.702 2 13.3333 2Z" fill="#111928"/>
<path d="M13.3333 10C12.9647 10 12.6667 10.2987 12.6667 10.6667V11.724L10.4713 9.52867C10.2107 9.268 9.78933 9.268 9.52867 9.52867C9.268 9.78933 9.268 10.2107 9.52867 10.4713L11.724 12.6667H10.6667C10.298 12.6667 10 12.9653 10 13.3333C10 13.7013 10.298 14 10.6667 14H13.3333C13.702 14 14 13.7013 14 13.3333V10.6667C14 10.2987 13.702 10 13.3333 10Z" fill="#111928"/>
<path d="M4.276 3.33333H5.33333C5.702 3.33333 6 3.03467 6 2.66667C6 2.29867 5.702 2 5.33333 2H2.66667C2.58 2 2.49333 2.018 2.412 2.05133C2.24867 2.11867 2.11867 2.24867 2.05133 2.412C2.018 2.49333 2 2.58 2 2.66667V5.33333C2 5.70133 2.298 6 2.66667 6C3.03533 6 3.33333 5.70133 3.33333 5.33333V4.276L5.69 6.63333C5.82 6.76333 5.99067 6.82867 6.16133 6.82867C6.332 6.82867 6.50267 6.76333 6.63267 6.63333C6.89333 6.37267 6.89333 5.95133 6.63267 5.69067L4.276 3.33333Z" fill="#111928"/>
<path d="M5.69 9.52867L3.33333 11.8853V10.6667C3.33333 10.2987 3.03533 10 2.66667 10C2.298 10 2 10.2987 2 10.6667V13.3333C2 13.7013 2.298 14 2.66667 14H5.33333C5.702 14 6 13.7013 6 13.3333C6 12.9653 5.702 12.6667 5.33333 12.6667H4.43733L6.63267 10.4713C6.89333 10.2107 6.89333 9.78933 6.63267 9.52867C6.372 9.268 5.95067 9.268 5.69 9.52867Z" fill="#111928"/>
</svg>
