<svg width="30" height="30" viewBox="0 0 30 30" fill="none" xmlns="http://www.w3.org/2000/svg">
<path d="M10.625 14.3421C13.7316 14.3421 16.25 11.6912 16.25 8.42105C16.25 5.15095 13.7316 2.5 10.625 2.5C7.5184 2.5 5 5.15095 5 8.42105C5 11.6912 7.5184 14.3421 10.625 14.3421Z" fill="#FACA15"/>
<path d="M12.5 15.6579H8.75C7.09301 15.66 5.50445 16.3538 4.33277 17.5871C3.1611 18.8205 2.50198 20.4926 2.5 22.2368V26.1842C2.5 26.5332 2.6317 26.8679 2.86612 27.1146C3.10054 27.3614 3.41848 27.5 3.75 27.5H17.5C17.8315 27.5 18.1495 27.3614 18.3839 27.1146C18.6183 26.8679 18.75 26.5332 18.75 26.1842V22.2368C18.748 20.4926 18.0889 18.8205 16.9172 17.5871C15.7456 16.3538 14.157 15.66 12.5 15.6579Z" fill="#FACA15"/>
<path d="M15.2112 11.8263C15.8854 10.8325 16.2485 9.64222 16.25 8.42105C16.2473 7.98748 16.1995 7.55551 16.1075 7.13289C15.5984 7.77465 15.2498 8.54015 15.0933 9.35982C14.9367 10.1795 14.9773 11.0273 15.2112 11.8263Z" fill="#FACA15"/>
<path d="M20 5.13158C19.4013 5.1364 18.8084 5.25543 18.25 5.48289C18.7642 6.93962 18.8877 8.51717 18.607 10.0428C18.3263 11.5685 17.6523 12.9835 16.6587 14.1329C17.2194 14.4601 17.7446 14.8505 18.225 15.2974C18.7906 15.5312 19.3923 15.6535 20 15.6579C21.3261 15.6579 22.5979 15.1034 23.5355 14.1164C24.4732 13.1293 25 11.7906 25 10.3947C25 8.99886 24.4732 7.66016 23.5355 6.67312C22.5979 5.68609 21.3261 5.13158 20 5.13158Z" fill="#FACA15"/>
<path d="M21.25 16.9737H19.6537C20.6894 18.5125 21.247 20.351 21.25 22.2368V26.1842C21.246 26.6335 21.1681 27.0786 21.02 27.5H26.25C26.5815 27.5 26.8995 27.3614 27.1339 27.1146C27.3683 26.8679 27.5 26.5332 27.5 26.1842V23.5526C27.498 21.8084 26.8389 20.1363 25.6672 18.9029C24.4956 17.6696 22.907 16.9758 21.25 16.9737Z" fill="#FACA15"/>
</svg>
